<?xml version="1.0" encoding="UTF-8"?>
<svg id="Layer_1" data-name="Layer 1" xmlns="http://www.w3.org/2000/svg" viewBox="0 0 512 512">
  <defs>
    <style>
      .cls-1 {
        fill: #44abc3;
      }

      .cls-2 {
        fill: #fffbf4;
      }
    </style>
  </defs>
  <rect class="cls-1" x=".33" y=".33" width="512" height="512"/>
  <g>
    <path class="cls-2" d="M369.14,271.51c-2.8,25.99-23.8,47.08-49.77,50.04-28.39,3.23-53.21-14.53-60.92-39.76-.76-2.48-4.18-2.48-4.93,0-7.7,25.21-32.5,42.97-60.87,39.76-25.97-2.94-46.98-24.04-49.78-50.03-3.05-28.28,14.64-52.94,39.77-60.62,2.48-.76,2.48-4.18,0-4.94-25.12-7.67-42.8-32.28-39.78-60.55,2.79-26,23.78-47.12,49.76-50.07,28.39-3.22,53.2,14.54,60.9,39.76.76,2.47,4.18,2.48,4.93,0,7.71-25.23,32.54-43,60.95-39.75,25.97,2.97,46.96,24.08,49.74,50.08,3.03,28.26-14.68,52.87-39.81,60.53-2.48.76-2.48,4.18,0,4.94,25.14,7.68,42.85,32.33,39.8,60.6Z"/>
    <rect class="cls-2" x="142.52" y="360.3" width="226.96" height="56.72" rx="28.36" ry="28.36"/>
  </g>
</svg>