<?xml version="1.0" encoding="UTF-8"?>
<svg id="Layer_1" data-name="Layer 1" xmlns="http://www.w3.org/2000/svg" viewBox="0 0 512 512">
  <defs>
    <style>
      .cls-1 {
        fill: #fffbf4;
      }

      .cls-2 {
        fill: #68b32e;
      }
    </style>
  </defs>
  <rect class="cls-1" x=".33" y=".33" width="512" height="512"/>
  <g>
    <path class="cls-2" d="M382.41,273.33c-3.13,29.04-26.59,52.61-55.61,55.91-31.72,3.61-59.45-16.23-68.06-44.42-.85-2.77-4.67-2.77-5.51,0-8.61,28.17-36.31,48.01-68.01,44.42-29.02-3.28-52.49-26.86-55.62-55.9-3.41-31.6,16.36-59.15,44.44-67.73,2.77-.85,2.77-4.67,0-5.52-28.06-8.57-47.82-36.06-44.44-67.65,3.11-29.04,26.57-52.64,55.59-55.94,31.72-3.6,59.43,16.24,68.04,44.42.84,2.77,4.67,2.77,5.51,0,8.61-28.19,36.36-48.04,68.1-44.41,29.02,3.32,52.47,26.91,55.58,55.95,3.38,31.58-16.41,59.07-44.48,67.63-2.77.85-2.77,4.67,0,5.52,28.08,8.58,47.88,36.12,44.47,67.71Z"/>
    <rect class="cls-2" x="129.21" y="372.54" width="253.58" height="63.37" rx="31.69" ry="31.69"/>
  </g>
</svg>