<?xml version="1.0" encoding="UTF-8"?>
<svg id="Layer_1" data-name="Layer 1" xmlns="http://www.w3.org/2000/svg" viewBox="0 0 1000 1000">
  <defs>
    <style>
      .cls-1 {
        fill: #fffbf4;
      }

      .cls-2 {
        fill: #c54817;
      }
    </style>
  </defs>
  <rect class="cls-2" x="100.11" y="358.36" width="786.07" height="206.96" rx="40.96" ry="40.96"/>
  <g>
    <g>
      <path class="cls-1" d="M237.86,467.31c-1.01,9.36-8.57,16.96-17.93,18.03-10.23,1.16-19.17-5.24-21.95-14.32-.27-.89-1.51-.89-1.78,0-2.78,9.08-11.71,15.48-21.93,14.33-9.36-1.06-16.93-8.66-17.94-18.03-1.1-10.19,5.28-19.07,14.33-21.84.89-.27.89-1.51,0-1.78-9.05-2.76-15.42-11.63-14.33-21.82,1-9.37,8.57-16.98,17.93-18.04,10.23-1.16,19.17,5.24,21.94,14.32.27.89,1.51.89,1.78,0,2.78-9.09,11.72-15.49,21.96-14.32,9.36,1.07,16.92,8.68,17.92,18.04,1.09,10.18-5.29,19.05-14.34,21.81-.89.27-.89,1.51,0,1.78,9.06,2.77,15.44,11.65,14.34,21.84Z"/>
      <rect class="cls-1" x="156.21" y="499.3" width="81.77" height="20.44" rx="10.22" ry="10.22"/>
    </g>
    <g>
      <polygon class="cls-1" points="328.76 444.32 299.14 444.32 299.14 417.13 285.93 417.13 285.93 485.39 299.14 485.39 299.14 455.97 328.76 455.97 328.76 485.39 341.96 485.39 341.96 417.13 328.76 417.13 328.76 444.32"/>
      <path class="cls-1" d="M388.09,440.44c-3.5-2.01-7.44-3.01-11.85-3.01-4.66,0-8.87,1.07-12.62,3.2-3.76,2.14-6.72,5.05-8.89,8.74-2.17,3.69-3.25,7.87-3.25,12.53s1.1,8.93,3.3,12.62c2.2,3.69,5.23,6.6,9.08,8.74,3.85,2.14,8.24,3.2,13.16,3.2,3.82,0,7.35-.68,10.58-2.04,3.24-1.36,6.05-3.4,8.45-6.12l-7.57-7.57c-1.42,1.68-3.11,2.91-5.05,3.69-1.94.78-4.11,1.16-6.51,1.16-2.66,0-4.99-.55-6.99-1.65-2.01-1.1-3.54-2.7-4.61-4.81-.42-.83-.76-1.73-1.02-2.68l34.27-.08c.26-1.03.42-1.99.49-2.86.06-.87.1-1.73.1-2.57,0-4.53-.97-8.58-2.91-12.14-1.94-3.56-4.66-6.34-8.16-8.35ZM369.54,449.76c1.88-1.1,4.08-1.65,6.6-1.65,2.39,0,4.4.49,6.02,1.46,1.62.97,2.88,2.4,3.79,4.27.44.9.77,1.92,1.01,3.03l-22.63.07c.23-.87.52-1.7.89-2.46,1-2.04,2.44-3.61,4.32-4.71Z"/>
      <path class="cls-1" d="M440.23,442.93c-1.3-1.34-2.82-2.47-4.56-3.36-2.66-1.36-5.63-2.04-8.93-2.04-4.34,0-8.2,1.07-11.6,3.2-3.4,2.14-6.07,5.05-8.01,8.74-1.94,3.69-2.91,7.87-2.91,12.53s.97,8.74,2.91,12.43c1.94,3.69,4.61,6.6,8.01,8.74,3.4,2.14,7.23,3.2,11.51,3.2,3.36,0,6.39-.68,9.08-2.04,1.74-.88,3.24-1.98,4.52-3.31v4.38h12.82v-46.9h-12.82v4.43ZM437.7,471.02c-2.2,2.4-5.08,3.59-8.64,3.59-2.27,0-4.31-.55-6.12-1.65-1.81-1.1-3.22-2.59-4.22-4.47-1-1.88-1.5-4.08-1.5-6.6s.5-4.63,1.5-6.51c1-1.88,2.39-3.36,4.18-4.47,1.78-1.1,3.84-1.65,6.17-1.65s4.47.53,6.21,1.6c1.75,1.07,3.14,2.57,4.18,4.52,1.03,1.94,1.55,4.14,1.55,6.6,0,3.63-1.1,6.64-3.3,9.03Z"/>
      <rect class="cls-1" x="464.11" y="415.19" width="12.72" height="70.2"/>
      <polygon class="cls-1" points="507.71 415.19 494.99 415.19 494.99 438.49 484.02 438.49 484.02 449.66 494.99 449.66 494.99 485.39 507.71 485.39 507.71 449.66 518.68 449.66 518.68 438.49 507.71 438.49 507.71 415.19"/>
      <path class="cls-1" d="M561.41,439.8c-2.72-1.52-5.86-2.28-9.42-2.28s-6.73.78-9.51,2.33c-1.47.82-2.76,1.81-3.89,2.96v-27.63h-12.72v70.2h12.72v-26.9c0-1.81.4-3.45,1.21-4.9.81-1.46,1.93-2.57,3.35-3.35,1.42-.78,3.04-1.17,4.85-1.17,2.72,0,4.95.87,6.7,2.62,1.75,1.75,2.62,4.01,2.62,6.8v26.9h12.82v-29.81c0-3.56-.78-6.7-2.33-9.42-1.55-2.72-3.69-4.84-6.41-6.36Z"/>
      <path class="cls-1" d="M620.3,451.07c-1.91-1.52-4-2.78-6.26-3.79-2.27-1-4.56-1.89-6.89-2.67-2.33-.78-4.45-1.6-6.36-2.48-1.91-.87-3.45-1.88-4.61-3.01-1.16-1.13-1.75-2.64-1.75-4.52,0-2.14.87-3.8,2.62-5,1.75-1.2,4.14-1.8,7.18-1.8,2.65,0,5.03.52,7.14,1.55,2.1,1.04,4.16,2.66,6.17,4.86l8.74-8.74c-2.33-2.78-5.39-5.05-9.18-6.8-3.79-1.75-8.01-2.62-12.67-2.62-4.4,0-8.35.78-11.85,2.33-3.5,1.55-6.25,3.79-8.25,6.7-2.01,2.91-3.01,6.44-3.01,10.58,0,3.56.57,6.47,1.7,8.74,1.13,2.27,2.67,4.14,4.61,5.63,1.94,1.49,4.05,2.72,6.31,3.69,2.27.97,4.55,1.83,6.85,2.57,2.3.74,4.4,1.55,6.31,2.43,1.91.87,3.45,1.96,4.61,3.25s1.75,2.98,1.75,5.05c0,2.4-1.01,4.27-3.01,5.63-2.01,1.36-4.73,2.04-8.16,2.04-3.82,0-7.04-.73-9.66-2.19-2.62-1.46-4.97-3.51-7.04-6.17l-8.74,8.74c3.17,3.82,6.72,6.67,10.63,8.55,3.92,1.88,8.59,2.82,14.03,2.82,7.83,0,13.98-1.83,18.45-5.49,4.47-3.66,6.7-8.66,6.7-15,0-3.56-.58-6.55-1.75-8.98-1.17-2.43-2.7-4.4-4.61-5.92Z"/>
      <path class="cls-1" d="M668.8,440.44c-3.49-2.01-7.44-3.01-11.85-3.01-4.66,0-8.87,1.07-12.62,3.2-3.76,2.14-6.72,5.05-8.89,8.74-2.17,3.69-3.25,7.87-3.25,12.53s1.1,8.93,3.3,12.62c2.2,3.69,5.23,6.6,9.08,8.74,3.85,2.14,8.24,3.2,13.16,3.2,3.82,0,7.35-.68,10.58-2.04,3.24-1.36,6.05-3.4,8.45-6.12l-7.57-7.57c-1.42,1.68-3.11,2.91-5.05,3.69-1.94.78-4.11,1.16-6.51,1.16-2.66,0-4.99-.55-6.99-1.65-2.01-1.1-3.55-2.7-4.61-4.81-.42-.83-.76-1.73-1.02-2.68l34.27-.08c.26-1.03.42-1.99.48-2.86.06-.87.1-1.73.1-2.57,0-4.53-.97-8.58-2.91-12.14-1.94-3.56-4.66-6.34-8.16-8.35ZM650.26,449.76c1.88-1.1,4.08-1.65,6.6-1.65,2.39,0,4.4.49,6.02,1.46,1.62.97,2.88,2.4,3.79,4.27.44.9.77,1.92,1.01,3.03l-22.63.07c.23-.87.52-1.7.89-2.46,1-2.04,2.44-3.61,4.32-4.71Z"/>
      <path class="cls-1" d="M723.42,440.1c-2.69-1.71-5.78-2.57-9.27-2.57s-6.75.78-9.56,2.33c-1.53.84-2.87,1.87-4.03,3.06v-4.42h-12.72v46.9h12.72v-26.9c0-1.81.4-3.45,1.21-4.9.81-1.46,1.93-2.57,3.35-3.35,1.42-.78,3.04-1.17,4.85-1.17,2.72,0,4.95.87,6.7,2.62,1.75,1.75,2.62,4.01,2.62,6.8v26.9h12.82v-29.81c0-3.11-.78-6.04-2.33-8.79-1.55-2.75-3.67-4.98-6.36-6.7Z"/>
      <path class="cls-1" d="M755.03,449.08c.97-.58,2.43-.87,4.37-.87s3.9.4,5.68,1.21c1.78.81,3.38,2.06,4.81,3.74l7.67-7.77c-2.07-2.72-4.68-4.74-7.82-6.07-3.14-1.33-6.65-1.99-10.54-1.99s-6.89.6-9.61,1.8c-2.72,1.2-4.82,2.91-6.31,5.15-1.49,2.23-2.23,4.84-2.23,7.82s.58,5.18,1.75,6.99c1.16,1.81,2.64,3.22,4.42,4.22,1.78,1,3.67,1.8,5.68,2.38,2.01.58,3.9,1.13,5.68,1.65,1.78.52,3.25,1.12,4.42,1.8s1.75,1.67,1.75,2.96c0,1.1-.55,1.96-1.65,2.57-1.1.62-2.69.92-4.76.92-2.52,0-4.86-.45-6.99-1.36-2.14-.91-3.98-2.3-5.54-4.18l-7.67,7.67c1.55,1.81,3.4,3.38,5.54,4.71,2.14,1.33,4.48,2.33,7.04,3.01,2.56.68,5.19,1.02,7.91,1.02,5.63,0,10.1-1.34,13.4-4.03,3.3-2.69,4.95-6.33,4.95-10.92,0-2.85-.57-5.18-1.7-6.99-1.13-1.81-2.59-3.27-4.37-4.37-1.78-1.1-3.66-1.96-5.63-2.57-1.98-.61-3.87-1.18-5.68-1.7-1.81-.52-3.27-1.08-4.37-1.7-1.1-.61-1.65-1.5-1.65-2.67,0-1.03.49-1.85,1.46-2.43Z"/>
      <path class="cls-1" d="M827.17,448.79c-1.94-3.56-4.66-6.34-8.16-8.35-3.5-2.01-7.45-3.01-11.85-3.01-4.66,0-8.87,1.07-12.62,3.2-3.75,2.14-6.72,5.05-8.89,8.74-2.17,3.69-3.25,7.87-3.25,12.53s1.1,8.93,3.3,12.62c2.2,3.69,5.23,6.6,9.08,8.74,3.85,2.14,8.24,3.2,13.16,3.2,3.82,0,7.35-.68,10.59-2.04,3.24-1.36,6.05-3.4,8.45-6.12l-7.57-7.57c-1.42,1.68-3.11,2.91-5.05,3.69-1.94.78-4.11,1.16-6.51,1.16-2.66,0-4.98-.55-6.99-1.65-2.01-1.1-3.54-2.7-4.61-4.81-.42-.83-.76-1.73-1.02-2.68l34.27-.08c.26-1.03.42-1.99.49-2.86.06-.87.1-1.73.1-2.57,0-4.53-.97-8.58-2.91-12.14ZM800.47,449.76c1.88-1.1,4.08-1.65,6.6-1.65,2.39,0,4.4.49,6.02,1.46s2.88,2.4,3.79,4.27c.44.9.77,1.92,1.01,3.03l-22.63.07c.23-.87.52-1.7.89-2.46,1-2.04,2.44-3.61,4.32-4.71Z"/>
    </g>
    <g>
      <path class="cls-1" d="M298.44,515.43c-.24.39-.54.72-.9.99-.36.27-.76.47-1.21.61-.45.14-.92.21-1.43.21-.91,0-1.72-.23-2.44-.68-.72-.46-1.28-1.13-1.69-2.01-.41-.89-.61-1.98-.61-3.27s.2-2.37.61-3.26c.41-.89.97-1.57,1.68-2.04.72-.47,1.54-.7,2.46-.7.51,0,.99.07,1.43.21.45.14.85.34,1.21.61.36.27.65.6.89.98.24.39.41.83.51,1.34h3.06c-.14-.92-.41-1.75-.82-2.48-.41-.73-.93-1.34-1.56-1.85-.63-.5-1.35-.89-2.16-1.15s-1.67-.39-2.6-.39c-1.47,0-2.79.34-3.96,1.03-1.17.69-2.1,1.69-2.77,2.99-.68,1.3-1.02,2.86-1.02,4.69s.34,3.38,1.01,4.67c.67,1.3,1.6,2.29,2.76,2.98s2.49,1.03,3.98,1.03c1,0,1.91-.15,2.74-.46.82-.3,1.54-.72,2.17-1.26.62-.54,1.12-1.16,1.51-1.87.38-.71.63-1.47.74-2.28h-3.07c-.09.5-.26.95-.5,1.34Z"/>
      <path class="cls-1" d="M320.69,503.59c-1.17-.69-2.5-1.03-3.97-1.03s-2.82.34-3.99,1.03-2.1,1.69-2.78,2.99c-.68,1.3-1.02,2.86-1.02,4.69s.34,3.38,1.02,4.67c.68,1.3,1.61,2.29,2.78,2.98s2.51,1.03,3.99,1.03,2.8-.34,3.97-1.03c1.17-.69,2.1-1.68,2.77-2.98.68-1.3,1.02-2.86,1.02-4.68s-.34-3.39-1.02-4.69c-.68-1.3-1.6-2.3-2.77-2.99ZM320.82,514.53c-.4.89-.96,1.57-1.67,2.02-.71.46-1.52.69-2.44.69s-1.74-.23-2.46-.69-1.27-1.14-1.68-2.02c-.41-.89-.61-1.97-.61-3.25s.2-2.38.61-3.27c.41-.89.96-1.57,1.68-2.03s1.53-.69,2.46-.69,1.73.23,2.44.69c.71.46,1.26,1.13,1.67,2.02s.6,1.98.6,3.28-.2,2.37-.6,3.26Z"/>
      <path class="cls-1" d="M342.72,513.6c0,.71-.16,1.34-.47,1.89-.31.55-.76.99-1.33,1.3-.57.31-1.25.47-2.03.47s-1.46-.16-2.03-.47c-.57-.31-1.02-.75-1.33-1.3-.31-.55-.47-1.18-.47-1.89v-10.81h-3.04v11.07c0,1.21.28,2.27.85,3.19.57.92,1.37,1.64,2.4,2.16,1.03.52,2.24.78,3.62.78s2.58-.26,3.61-.78c1.03-.52,1.83-1.24,2.4-2.16.57-.92.86-1.98.86-3.19v-11.07h-3.04v10.81Z"/>
      <path class="cls-1" d="M363.4,512.86c.89-.43,1.57-1.05,2.03-1.84s.69-1.73.69-2.81-.23-2.02-.68-2.84c-.46-.82-1.13-1.45-2.01-1.91-.89-.45-1.98-.68-3.28-.68h-6.33v16.95h3.04v-6.22h3.16l3.33,6.22h3.4l-3.68-6.74c.11-.04.23-.08.33-.13ZM356.85,505.33h2.83c.77,0,1.4.11,1.89.34s.85.56,1.09.98c.23.43.35.95.35,1.55s-.12,1.1-.35,1.51-.59.73-1.08.95c-.49.22-1.11.32-1.88.32h-2.85v-5.66Z"/>
      <path class="cls-1" d="M378.45,502.79l-5.91,16.95h3.32l1.39-4.2h6.34l1.44,4.2h3.33l-6.05-16.95h-3.86ZM378.05,513.09l.71-2.16c.27-.88.56-1.9.87-3.05.22-.83.46-1.74.72-2.74.26.98.51,1.88.73,2.7.32,1.15.63,2.18.92,3.09l.74,2.16h-4.7Z"/>
      <path class="cls-1" d="M401.99,513.26h3.91c-.02.78-.18,1.47-.51,2.06-.35.61-.83,1.09-1.47,1.42s-1.38.5-2.25.5c-.95,0-1.78-.23-2.5-.7s-1.28-1.15-1.69-2.04c-.41-.89-.61-1.97-.61-3.25s.2-2.38.61-3.26c.41-.89.97-1.56,1.69-2.02.72-.46,1.53-.69,2.44-.69.52,0,.99.07,1.42.2.43.13.81.33,1.15.59.34.26.63.57.86.92.24.36.43.76.56,1.22h3.1c-.13-.83-.4-1.58-.8-2.27s-.93-1.29-1.56-1.79c-.63-.5-1.35-.89-2.16-1.17s-1.68-.41-2.61-.41c-1.48,0-2.8.35-3.97,1.04-1.17.69-2.09,1.69-2.77,2.99-.68,1.3-1.02,2.86-1.02,4.69s.33,3.32.99,4.62c.66,1.3,1.58,2.3,2.75,3s2.54,1.06,4.11,1.06c1.39,0,2.63-.28,3.71-.85,1.08-.57,1.93-1.38,2.55-2.44.62-1.06.93-2.31.93-3.76v-2.04h-6.86v2.39Z"/>
      <polygon class="cls-1" points="419.49 512.44 426.87 512.44 426.87 509.92 419.49 509.92 419.49 505.34 427.46 505.34 427.46 502.79 416.46 502.79 416.46 519.73 427.51 519.73 427.51 517.17 419.49 517.17 419.49 512.44"/>
      <polygon class="cls-1" points="444.98 505.34 450.21 505.34 450.21 519.73 453.25 519.73 453.25 505.34 458.47 505.34 458.47 502.79 444.98 502.79 444.98 505.34"/>
      <path class="cls-1" d="M476.28,503.59c-1.17-.69-2.5-1.03-3.97-1.03s-2.82.34-3.99,1.03-2.1,1.69-2.78,2.99c-.68,1.3-1.02,2.86-1.02,4.69s.34,3.38,1.02,4.67c.68,1.3,1.61,2.29,2.78,2.98s2.51,1.03,3.99,1.03,2.8-.34,3.97-1.03c1.17-.69,2.1-1.68,2.77-2.98.68-1.3,1.02-2.86,1.02-4.68s-.34-3.39-1.02-4.69c-.68-1.3-1.6-2.3-2.77-2.99ZM476.41,514.53c-.4.89-.96,1.57-1.67,2.02-.71.46-1.52.69-2.44.69s-1.74-.23-2.46-.69-1.27-1.14-1.68-2.02c-.41-.89-.61-1.97-.61-3.25s.2-2.38.61-3.27c.41-.89.96-1.57,1.68-2.03s1.53-.69,2.46-.69,1.73.23,2.44.69c.71.46,1.26,1.13,1.67,2.02s.6,1.98.6,3.28-.2,2.37-.6,3.26Z"/>
      <path class="cls-1" d="M508.86,511.51c-.55-.33-1.13-.52-1.73-.55v-.17c.55-.13,1.05-.34,1.5-.65.44-.3.8-.7,1.06-1.19.26-.49.4-1.08.4-1.77,0-.84-.2-1.59-.6-2.25-.4-.66-1.01-1.18-1.82-1.57-.81-.39-1.83-.58-3.05-.58h-6.48v16.95h6.83c1.3,0,2.37-.2,3.22-.6.85-.4,1.49-.95,1.92-1.65.43-.7.64-1.49.64-2.37s-.18-1.59-.53-2.19c-.35-.61-.81-1.08-1.36-1.41ZM501.17,505.31h3.13c.91,0,1.6.21,2.06.64.46.43.69.97.69,1.63,0,.5-.12.93-.37,1.3-.25.36-.58.65-1.01.84-.43.2-.91.3-1.44.3h-3.06v-4.7ZM506.92,516.55c-.5.43-1.31.65-2.43.65h-3.32v-4.99h3.42c.63,0,1.17.12,1.63.35.46.23.81.56,1.06.96.25.41.38.86.38,1.37,0,.68-.25,1.23-.75,1.66Z"/>
      <polygon class="cls-1" points="521.18 512.44 528.56 512.44 528.56 509.92 521.18 509.92 521.18 505.34 529.16 505.34 529.16 502.79 518.15 502.79 518.15 519.73 529.2 519.73 529.2 517.17 521.18 517.17 521.18 512.44"/>
      <path class="cls-1" d="M544.55,513.26h3.91c-.02.78-.18,1.47-.51,2.06-.34.61-.83,1.09-1.47,1.42-.63.33-1.38.5-2.25.5-.95,0-1.78-.23-2.5-.7-.72-.47-1.29-1.15-1.69-2.04s-.61-1.97-.61-3.25.2-2.38.61-3.26c.41-.89.97-1.56,1.69-2.02s1.53-.69,2.44-.69c.52,0,.99.07,1.42.2s.81.33,1.15.59c.34.26.63.57.86.92.24.36.43.76.56,1.22h3.1c-.13-.83-.4-1.58-.8-2.27-.41-.69-.92-1.29-1.56-1.79-.63-.5-1.35-.89-2.16-1.17-.81-.27-1.68-.41-2.61-.41-1.48,0-2.8.35-3.97,1.04-1.17.69-2.09,1.69-2.77,2.99-.68,1.3-1.02,2.86-1.02,4.69s.33,3.32.99,4.62c.66,1.3,1.58,2.3,2.75,3s2.54,1.06,4.11,1.06c1.39,0,2.63-.28,3.71-.85,1.08-.57,1.93-1.38,2.55-2.44.62-1.06.93-2.31.93-3.76v-2.04h-6.86v2.39Z"/>
      <rect class="cls-1" x="559.01" y="502.79" width="3.04" height="16.95"/>
      <path class="cls-1" d="M581.31,502.79v8.89c0,.42,0,.93.03,1.53.02.6.05,1.24.09,1.91.02.33.05.64.07.96-.15-.35-.31-.69-.46-1-.3-.6-.58-1.15-.85-1.64-.27-.49-.53-.93-.77-1.31l-5.86-9.34h-3.43v16.95h3.09v-8.42c0-.36-.01-.83-.04-1.41s-.06-1.25-.1-1.98c-.02-.46-.05-.93-.08-1.42.28.54.54,1.03.76,1.46.34.66.66,1.25.95,1.77s.61,1.05.94,1.59l5.29,8.4h3.45v-16.95h-3.08Z"/>
    </g>
  </g>
</svg>