<?xml version="1.0" encoding="utf-8"?>
<svg xmlns="http://www.w3.org/2000/svg" viewBox="0 0 128 128" role="img" aria-labelledby="title">
  <title>CoachSense</title>
  <g fill="#c54817" transform="translate(16 8)">
    <path d="M96.03,74.66c-1.18,10.88-9.97,19.71-20.84,20.95-11.89,1.35-22.28-6.09-25.5-16.65-.32-1.04-1.75-1.04-2.06,0-3.22,10.55-13.6,18-25.47,16.65-10.87-1.23-19.67-10.06-20.84-20.95-1.27-11.84,6.13-22.17,16.65-25.39,1.04-.32,1.04-1.75,0-2.06C7.45,43.99.04,33.69,1.31,21.85,2.48,10.96,11.27,2.12,22.14.88,34.03-.47,44.41,6.97,47.64,17.54c.32,1.04,1.75,1.04,2.06,0C52.93,6.97,63.32-.48,75.22.88,86.09,2.13,94.88,10.97,96.04,21.86c1.26,11.84-6.15,22.14-16.68,25.35-1.04.32-1.04,1.75,0,2.06,10.52,3.21,17.95,13.54,16.67,25.38Z" />
    <rect x="1.15" y="107.23" width="95.1" height="23.77" rx="11.89" ry="11.89" />
  </g>
</svg>
