<?xml version="1.0" encoding="utf-8"?>
<svg xmlns="http://www.w3.org/2000/svg" viewBox="-14 -22 720 190" role="img" aria-labelledby="title">
  <title>CoachSense</title>
  <defs>
    <style>
      .icon {
        fill: #c54817;
      }

      .wordmark {
        fill: #1e1e1b;
        font-family: Inter, Arial, Helvetica, sans-serif;
        font-size: 74px;
        font-weight: 700;
        letter-spacing: -1px;
      }
    </style>
  </defs>
  <g transform="translate(6 0)">
    <path
      class="icon"
      d="M97.03,76.82c-1.19,11.01-10.08,19.95-21.09,21.2-12.03,1.37-22.55-6.16-25.81-16.85-.32-1.05-1.77-1.05-2.09,0-3.26,10.68-13.77,18.21-25.79,16.85-11.01-1.24-19.91-10.19-21.09-21.2-1.29-11.98,6.2-22.43,16.85-25.69,1.05-.32,1.05-1.77,0-2.09-10.64-3.25-18.14-13.68-16.85-25.66,1.18-11.02,10.08-19.97,21.08-21.22,12.03-1.37,22.54,6.16,25.81,16.85.32,1.05,1.77,1.05,2.09,0,3.27-10.69,13.79-18.22,25.83-16.85,11.01,1.26,19.9,10.21,21.08,21.22,1.28,11.98-6.22,22.4-16.87,25.65-1.05.32-1.05,1.77,0,2.09,10.65,3.25,18.16,13.7,16.87,25.68Z"
    />
    <rect class="icon" x="1.0" y="114.45" width="96.17" height="24.03" rx="12.02" ry="12.02" />
  </g>
  <text class="wordmark" x="150" y="95">CoachSense</text>
</svg>
