<?xml version="1.0" encoding="UTF-8"?>
<svg id="Layer_1" data-name="Layer 1" xmlns="http://www.w3.org/2000/svg" viewBox="0 0 1000 1000">
  <defs>
    <style>
      .cls-1 {
        fill: #fffbf4;
      }
    </style>
  </defs>
  <g>
    <path class="cls-1" d="M201.7,464.72c-1.19,11.01-10.08,19.95-21.09,21.2-12.03,1.37-22.55-6.16-25.81-16.85-.32-1.05-1.77-1.05-2.09,0-3.26,10.68-13.77,18.21-25.79,16.85-11.01-1.24-19.91-10.19-21.09-21.2-1.29-11.98,6.2-22.43,16.85-25.69,1.05-.32,1.05-1.77,0-2.09-10.64-3.25-18.14-13.68-16.85-25.66,1.18-11.02,10.08-19.97,21.08-21.22,12.03-1.37,22.54,6.16,25.81,16.85.32,1.05,1.77,1.05,2.09,0,3.27-10.69,13.79-18.22,25.83-16.85,11.01,1.26,19.9,10.21,21.08,21.22,1.28,11.98-6.22,22.4-16.87,25.65-1.05.32-1.05,1.77,0,2.09,10.65,3.25,18.16,13.7,16.87,25.68Z"/>
    <rect class="cls-1" x="105.67" y="502.35" width="96.17" height="24.03" rx="12.02" ry="12.02"/>
  </g>
  <g>
    <polygon class="cls-1" points="308.61 437.69 273.78 437.69 273.78 405.71 258.24 405.71 258.24 486 273.78 486 273.78 451.39 308.61 451.39 308.61 486 324.14 486 324.14 405.71 308.61 405.71 308.61 437.69"/>
    <path class="cls-1" d="M378.39,433.12c-4.11-2.36-8.76-3.54-13.93-3.54-5.48,0-10.43,1.26-14.85,3.77-4.42,2.51-7.9,5.94-10.45,10.28-2.55,4.34-3.83,9.25-3.83,14.73s1.29,10.51,3.88,14.85c2.59,4.34,6.15,7.77,10.68,10.28,4.53,2.51,9.69,3.77,15.47,3.77,4.49,0,8.64-.8,12.45-2.4,3.81-1.6,7.12-4,9.94-7.19l-8.91-8.91c-1.68,1.98-3.65,3.43-5.94,4.34-2.28.91-4.84,1.37-7.65,1.37-3.12,0-5.86-.65-8.22-1.94-2.36-1.29-4.17-3.18-5.42-5.65-.5-.98-.89-2.04-1.19-3.16l40.31-.1c.3-1.22.49-2.34.57-3.37.07-1.03.11-2.04.11-3.03,0-5.33-1.14-10.09-3.43-14.28-2.28-4.18-5.48-7.46-9.59-9.82ZM356.57,444.08c2.21-1.29,4.8-1.94,7.77-1.94,2.82,0,5.18.57,7.08,1.71,1.9,1.14,3.39,2.82,4.45,5.02.51,1.06.9,2.25,1.19,3.56l-26.62.08c.28-1.02.61-2,1.05-2.89,1.18-2.4,2.87-4.24,5.08-5.54Z"/>
    <path class="cls-1" d="M439.71,436.05c-1.53-1.58-3.31-2.9-5.37-3.96-3.12-1.6-6.62-2.4-10.51-2.4-5.1,0-9.65,1.26-13.65,3.77-4,2.51-7.14,5.94-9.42,10.28-2.28,4.34-3.43,9.25-3.43,14.73s1.14,10.28,3.43,14.62c2.28,4.34,5.42,7.77,9.42,10.28,4,2.51,8.51,3.77,13.53,3.77,3.96,0,7.52-.8,10.68-2.4,2.04-1.03,3.81-2.33,5.31-3.89v5.15h15.08v-55.16h-15.08v5.21ZM436.74,469.09c-2.59,2.82-5.98,4.23-10.16,4.23-2.67,0-5.06-.65-7.19-1.94-2.13-1.29-3.79-3.04-4.97-5.25-1.18-2.21-1.77-4.8-1.77-7.77s.59-5.44,1.77-7.65c1.18-2.21,2.82-3.96,4.91-5.25,2.09-1.29,4.51-1.94,7.25-1.94s5.25.63,7.31,1.88c2.06,1.26,3.69,3.03,4.91,5.31,1.22,2.28,1.83,4.87,1.83,7.77,0,4.27-1.3,7.8-3.88,10.62Z"/>
    <rect class="cls-1" x="467.81" y="403.43" width="14.96" height="82.57"/>
    <polygon class="cls-1" points="519.08 403.43 504.12 403.43 504.12 430.84 491.22 430.84 491.22 443.97 504.12 443.97 504.12 486 519.08 486 519.08 443.97 531.99 443.97 531.99 430.84 519.08 430.84 519.08 403.43"/>
    <path class="cls-1" d="M582.24,432.38c-3.2-1.79-6.89-2.68-11.08-2.68s-7.92.91-11.19,2.74c-1.73.96-3.25,2.13-4.57,3.48v-32.49h-14.96v82.57h14.96v-31.63c0-2.13.47-4.05,1.43-5.77.95-1.71,2.27-3.03,3.94-3.94,1.67-.91,3.58-1.37,5.71-1.37,3.2,0,5.83,1.03,7.88,3.08,2.05,2.06,3.08,4.72,3.08,8v31.63h15.07v-35.06c0-4.19-.91-7.88-2.74-11.08-1.83-3.2-4.34-5.69-7.54-7.48Z"/>
    <path class="cls-1" d="M651.5,445.62c-2.25-1.79-4.7-3.27-7.37-4.45-2.67-1.18-5.37-2.23-8.11-3.14-2.74-.91-5.24-1.88-7.48-2.91-2.25-1.03-4.06-2.21-5.43-3.54-1.37-1.33-2.05-3.1-2.05-5.31,0-2.51,1.03-4.47,3.08-5.88,2.06-1.41,4.87-2.11,8.45-2.11,3.12,0,5.92.61,8.4,1.83,2.47,1.22,4.89,3.12,7.25,5.71l10.28-10.28c-2.74-3.27-6.34-5.94-10.79-7.99-4.45-2.06-9.42-3.08-14.9-3.08-5.18,0-9.82.91-13.93,2.74-4.11,1.83-7.35,4.45-9.71,7.88-2.36,3.43-3.54,7.58-3.54,12.45,0,4.19.67,7.61,2,10.28,1.33,2.67,3.14,4.87,5.42,6.62,2.28,1.75,4.76,3.2,7.42,4.34,2.67,1.14,5.35,2.15,8.05,3.03,2.7.88,5.18,1.83,7.42,2.86,2.24,1.03,4.05,2.3,5.42,3.83s2.06,3.5,2.06,5.94c0,2.82-1.18,5.02-3.54,6.62-2.36,1.6-5.56,2.4-9.59,2.4-4.49,0-8.28-.86-11.36-2.57-3.08-1.71-5.85-4.13-8.28-7.25l-10.28,10.28c3.73,4.49,7.9,7.84,12.51,10.05,4.6,2.21,10.11,3.31,16.5,3.31,9.21,0,16.45-2.15,21.7-6.45,5.25-4.3,7.88-10.18,7.88-17.64,0-4.19-.69-7.71-2.05-10.56-1.37-2.86-3.18-5.18-5.43-6.97Z"/>
    <path class="cls-1" d="M708.55,433.12c-4.11-2.36-8.75-3.54-13.93-3.54-5.48,0-10.43,1.26-14.85,3.77-4.42,2.51-7.9,5.94-10.45,10.28-2.55,4.34-3.83,9.25-3.83,14.73s1.29,10.51,3.88,14.85c2.59,4.34,6.15,7.77,10.68,10.28,4.53,2.51,9.69,3.77,15.48,3.77,4.49,0,8.64-.8,12.45-2.4,3.81-1.6,7.12-4,9.94-7.19l-8.91-8.91c-1.68,1.98-3.65,3.43-5.94,4.34-2.28.91-4.84,1.37-7.65,1.37-3.12,0-5.87-.65-8.22-1.94-2.36-1.29-4.17-3.18-5.43-5.65-.5-.98-.89-2.04-1.19-3.16l40.31-.1c.3-1.22.49-2.34.57-3.37.08-1.03.11-2.04.11-3.03,0-5.33-1.14-10.09-3.43-14.28-2.28-4.18-5.48-7.46-9.59-9.82ZM686.73,444.08c2.21-1.29,4.8-1.94,7.77-1.94,2.82,0,5.18.57,7.08,1.71,1.9,1.14,3.39,2.82,4.45,5.02.51,1.06.9,2.25,1.19,3.56l-26.62.08c.28-1.02.61-2,1.05-2.89,1.18-2.4,2.87-4.24,5.08-5.54Z"/>
    <path class="cls-1" d="M772.78,432.72c-3.16-2.02-6.79-3.03-10.9-3.03s-7.94.91-11.25,2.74c-1.8.99-3.37,2.2-4.74,3.6v-5.2h-14.96v55.16h14.96v-31.63c0-2.13.47-4.05,1.43-5.77.95-1.71,2.27-3.03,3.94-3.94,1.67-.91,3.58-1.37,5.71-1.37,3.2,0,5.83,1.03,7.88,3.08,2.05,2.06,3.08,4.72,3.08,8v31.63h15.07v-35.06c0-3.65-.91-7.1-2.74-10.34-1.83-3.24-4.32-5.86-7.48-7.88Z"/>
    <path class="cls-1" d="M809.96,443.28c1.14-.69,2.85-1.03,5.14-1.03s4.59.47,6.68,1.43c2.09.95,3.98,2.42,5.65,4.4l9.02-9.14c-2.44-3.2-5.5-5.58-9.19-7.14-3.7-1.56-7.82-2.34-12.39-2.34s-8.11.71-11.31,2.11c-3.2,1.41-5.67,3.43-7.42,6.05-1.75,2.63-2.63,5.69-2.63,9.19s.68,6.09,2.05,8.22c1.37,2.13,3.1,3.79,5.2,4.97,2.09,1.18,4.32,2.11,6.68,2.8,2.36.69,4.59,1.33,6.68,1.94,2.09.61,3.83,1.31,5.2,2.11s2.06,1.96,2.06,3.48c0,1.3-.65,2.3-1.94,3.03-1.29.72-3.16,1.08-5.59,1.08-2.97,0-5.71-.53-8.22-1.6-2.51-1.07-4.68-2.7-6.51-4.91l-9.02,9.02c1.83,2.13,4,3.98,6.51,5.54,2.51,1.56,5.27,2.74,8.28,3.54,3.01.8,6.11,1.2,9.31,1.2,6.62,0,11.88-1.58,15.76-4.74,3.88-3.16,5.83-7.44,5.83-12.85,0-3.35-.67-6.09-2-8.22-1.33-2.13-3.05-3.84-5.14-5.14-2.1-1.29-4.3-2.3-6.62-3.03-2.32-.72-4.55-1.39-6.68-2-2.13-.61-3.85-1.27-5.14-2-1.3-.72-1.94-1.77-1.94-3.14,0-1.22.57-2.17,1.72-2.86Z"/>
    <path class="cls-1" d="M894.81,442.94c-2.28-4.18-5.48-7.46-9.59-9.82-4.11-2.36-8.76-3.54-13.93-3.54-5.48,0-10.43,1.26-14.85,3.77-4.42,2.51-7.9,5.94-10.45,10.28-2.55,4.34-3.83,9.25-3.83,14.73s1.29,10.51,3.88,14.85c2.59,4.34,6.15,7.77,10.68,10.28,4.53,2.51,9.69,3.77,15.47,3.77,4.49,0,8.64-.8,12.45-2.4,3.81-1.6,7.12-4,9.93-7.19l-8.91-8.91c-1.68,1.98-3.65,3.43-5.94,4.34-2.28.91-4.84,1.37-7.65,1.37-3.12,0-5.86-.65-8.22-1.94-2.36-1.29-4.17-3.18-5.42-5.65-.5-.98-.89-2.04-1.2-3.16l40.31-.1c.3-1.22.49-2.34.57-3.37.07-1.03.11-2.04.11-3.03,0-5.33-1.14-10.09-3.43-14.28ZM863.4,444.08c2.21-1.29,4.8-1.94,7.77-1.94,2.82,0,5.18.57,7.08,1.71s3.39,2.82,4.45,5.02c.51,1.06.9,2.25,1.19,3.56l-26.62.08c.28-1.02.61-2,1.05-2.89,1.18-2.4,2.87-4.24,5.08-5.54Z"/>
  </g>
  <g>
    <path class="cls-1" d="M272.96,521.32c-.29.46-.64.85-1.06,1.16-.42.32-.9.56-1.42.72-.53.17-1.09.25-1.69.25-1.07,0-2.03-.27-2.87-.8-.84-.54-1.5-1.32-1.99-2.37-.48-1.04-.72-2.33-.72-3.85s.24-2.79.72-3.83c.48-1.05,1.14-1.85,1.98-2.39.84-.55,1.81-.82,2.9-.82.6,0,1.16.08,1.69.25.53.17,1,.41,1.42.72.42.32.77.7,1.05,1.16.28.46.48.98.6,1.58h3.6c-.16-1.09-.48-2.06-.96-2.92-.48-.86-1.09-1.58-1.84-2.17-.74-.59-1.59-1.04-2.54-1.35s-1.97-.46-3.06-.46c-1.73,0-3.28.41-4.66,1.22-1.38.81-2.47,1.98-3.26,3.51-.8,1.53-1.2,3.37-1.2,5.52s.4,3.97,1.19,5.5c.79,1.52,1.88,2.69,3.25,3.5s2.93,1.22,4.68,1.22c1.18,0,2.25-.18,3.22-.54.97-.36,1.82-.85,2.55-1.48.73-.63,1.32-1.37,1.77-2.2.45-.83.74-1.73.88-2.68h-3.61c-.11.59-.3,1.11-.59,1.57Z"/>
    <path class="cls-1" d="M299.12,507.4c-1.38-.81-2.94-1.22-4.67-1.22s-3.31.41-4.69,1.22-2.47,1.98-3.27,3.51c-.8,1.53-1.2,3.37-1.2,5.52s.4,3.97,1.2,5.5c.8,1.52,1.89,2.69,3.27,3.5s2.95,1.22,4.69,1.22,3.3-.4,4.67-1.21c1.38-.81,2.47-1.97,3.26-3.5.8-1.53,1.2-3.36,1.2-5.5s-.4-3.99-1.2-5.52c-.8-1.53-1.89-2.7-3.26-3.51ZM299.28,520.26c-.47,1.05-1.13,1.84-1.96,2.38-.83.54-1.79.81-2.87.81s-2.05-.27-2.89-.82-1.5-1.34-1.97-2.38c-.48-1.04-.72-2.32-.72-3.83s.24-2.8.72-3.85c.48-1.05,1.13-1.84,1.97-2.39s1.8-.82,2.89-.82,2.04.27,2.87.81c.83.54,1.49,1.33,1.96,2.38s.71,2.33.71,3.86-.24,2.78-.71,3.83Z"/>
    <path class="cls-1" d="M325.03,519.17c0,.83-.19,1.57-.56,2.22-.37.65-.89,1.16-1.56,1.53-.67.37-1.47.56-2.39.56s-1.71-.19-2.39-.56c-.67-.37-1.19-.88-1.56-1.53-.37-.65-.56-1.39-.56-2.22v-12.72h-3.57v13.01c0,1.42.33,2.67,1,3.75.67,1.08,1.61,1.93,2.82,2.54,1.21.61,2.63.92,4.25.92s3.04-.3,4.25-.92c1.21-.61,2.15-1.46,2.82-2.54.67-1.08,1.01-2.33,1.01-3.75v-13.01h-3.57v12.72Z"/>
    <path class="cls-1" d="M349.36,518.3c1.05-.51,1.85-1.23,2.39-2.17s.81-2.04.81-3.3-.27-2.38-.8-3.34c-.54-.96-1.32-1.71-2.37-2.24-1.04-.53-2.33-.8-3.85-.8h-7.45v19.93h3.57v-7.32h3.72l3.92,7.32h4l-4.32-7.92c.13-.05.27-.1.39-.16ZM341.65,509.45h3.33c.91,0,1.65.13,2.23.4s1,.65,1.28,1.16c.28.5.42,1.11.42,1.83s-.14,1.29-.42,1.78-.7.86-1.27,1.12c-.57.25-1.31.38-2.21.38h-3.36v-6.66Z"/>
    <path class="cls-1" d="M367.05,506.45l-6.96,19.93h3.91l1.63-4.94h7.46l1.69,4.94h3.92l-7.12-19.93h-4.53ZM366.58,518.57l.84-2.54c.32-1.04.66-2.23,1.02-3.59.26-.97.54-2.05.84-3.22.31,1.15.6,2.21.86,3.18.37,1.35.74,2.56,1.08,3.63l.87,2.54h-5.52Z"/>
    <path class="cls-1" d="M394.75,518.77h4.59c-.02.92-.21,1.73-.6,2.42-.41.72-.98,1.28-1.73,1.67s-1.62.59-2.64.59c-1.11,0-2.1-.27-2.94-.82s-1.51-1.35-1.99-2.39c-.48-1.05-.72-2.32-.72-3.82s.24-2.8.72-3.84c.48-1.04,1.14-1.84,1.99-2.38.84-.54,1.8-.82,2.87-.82.61,0,1.16.08,1.67.23.5.16.95.39,1.35.69.4.3.74.67,1.02,1.08.28.42.5.9.66,1.43h3.65c-.15-.97-.47-1.86-.94-2.67s-1.09-1.51-1.83-2.11c-.74-.59-1.59-1.05-2.54-1.37s-1.97-.48-3.07-.48c-1.74,0-3.29.41-4.67,1.22-1.37.82-2.46,1.99-3.26,3.52-.8,1.53-1.2,3.37-1.2,5.52s.39,3.91,1.16,5.43c.78,1.53,1.85,2.7,3.24,3.53s2.99,1.24,4.83,1.24c1.64,0,3.1-.33,4.37-1,1.27-.67,2.27-1.63,3-2.87.73-1.24,1.09-2.72,1.09-4.42v-2.39h-8.07v2.81Z"/>
    <polygon class="cls-1" points="415.32 517.81 424.01 517.81 424.01 514.84 415.32 514.84 415.32 509.46 424.7 509.46 424.7 506.45 411.75 506.45 411.75 526.38 424.75 526.38 424.75 523.37 415.32 523.37 415.32 517.81"/>
    <polygon class="cls-1" points="445.3 509.46 451.46 509.46 451.46 526.38 455.03 526.38 455.03 509.46 461.17 509.46 461.17 506.45 445.3 506.45 445.3 509.46"/>
    <path class="cls-1" d="M482.11,507.4c-1.38-.81-2.94-1.22-4.67-1.22s-3.31.41-4.69,1.22-2.47,1.98-3.27,3.51c-.8,1.53-1.2,3.37-1.2,5.52s.4,3.97,1.2,5.5c.8,1.52,1.89,2.69,3.27,3.5s2.95,1.22,4.69,1.22,3.3-.4,4.67-1.21c1.38-.81,2.47-1.97,3.26-3.5.8-1.53,1.2-3.36,1.2-5.5s-.4-3.99-1.2-5.52c-.8-1.53-1.89-2.7-3.26-3.51ZM482.27,520.26c-.47,1.05-1.13,1.84-1.96,2.38-.83.54-1.79.81-2.87.81s-2.05-.27-2.89-.82-1.5-1.34-1.97-2.38c-.48-1.04-.72-2.32-.72-3.83s.24-2.8.72-3.85c.48-1.05,1.13-1.84,1.97-2.39s1.8-.82,2.89-.82,2.04.27,2.87.81c.83.54,1.49,1.33,1.96,2.38s.71,2.33.71,3.86-.24,2.78-.71,3.83Z"/>
    <path class="cls-1" d="M520.43,516.71c-.65-.39-1.33-.61-2.03-.64v-.2c.65-.15,1.24-.41,1.76-.76.52-.36.94-.82,1.25-1.4.31-.58.47-1.27.47-2.08,0-.99-.24-1.87-.71-2.65-.47-.78-1.19-1.39-2.14-1.85-.96-.46-2.15-.68-3.58-.68h-7.62v19.93h8.04c1.53,0,2.79-.24,3.79-.71,1-.47,1.75-1.12,2.25-1.94.5-.82.75-1.75.75-2.78s-.21-1.87-.62-2.58c-.41-.71-.95-1.27-1.6-1.66ZM511.39,509.42h3.68c1.07,0,1.88.25,2.42.75.54.5.82,1.14.82,1.91,0,.59-.15,1.1-.43,1.52-.29.43-.68.76-1.18.99-.5.23-1.07.35-1.7.35h-3.6v-5.52ZM518.15,522.64c-.58.51-1.54.76-2.86.76h-3.91v-5.87h4.03c.74,0,1.38.14,1.92.41.54.28.96.65,1.25,1.13.29.48.44,1.01.44,1.61,0,.79-.29,1.44-.88,1.95Z"/>
    <polygon class="cls-1" points="534.93 517.81 543.61 517.81 543.61 514.84 534.93 514.84 534.93 509.46 544.3 509.46 544.3 506.45 531.36 506.45 531.36 526.38 544.36 526.38 544.36 523.37 534.93 523.37 534.93 517.81"/>
    <path class="cls-1" d="M562.41,518.77h4.59c-.02.92-.21,1.73-.6,2.42-.41.72-.98,1.28-1.73,1.67-.74.39-1.62.59-2.64.59-1.11,0-2.1-.27-2.94-.82-.85-.55-1.51-1.35-1.99-2.39s-.72-2.32-.72-3.82.24-2.8.72-3.84c.48-1.04,1.14-1.84,1.99-2.38s1.8-.82,2.87-.82c.61,0,1.16.08,1.67.23s.95.39,1.35.69c.4.3.74.67,1.02,1.08.28.42.5.9.66,1.43h3.65c-.15-.97-.47-1.86-.94-2.67-.48-.81-1.09-1.51-1.83-2.11-.75-.59-1.59-1.05-2.54-1.37-.95-.32-1.97-.48-3.07-.48-1.74,0-3.29.41-4.67,1.22-1.37.82-2.46,1.99-3.26,3.52-.8,1.53-1.2,3.37-1.2,5.52s.39,3.91,1.16,5.43c.78,1.53,1.86,2.7,3.24,3.53s2.99,1.24,4.83,1.24c1.64,0,3.1-.33,4.37-1,1.27-.67,2.27-1.63,3-2.87.73-1.24,1.09-2.72,1.09-4.42v-2.39h-8.07v2.81Z"/>
    <rect class="cls-1" x="579.42" y="506.45" width="3.57" height="19.93"/>
    <path class="cls-1" d="M605.64,506.45v10.46c0,.49.01,1.09.03,1.8.02.71.06,1.46.11,2.25.02.39.05.75.08,1.13-.18-.41-.36-.81-.54-1.18-.35-.71-.68-1.35-1-1.93-.32-.58-.62-1.09-.91-1.54l-6.89-10.98h-4.04v19.93h3.64v-9.9c0-.42-.02-.97-.05-1.66s-.07-1.46-.11-2.33c-.03-.54-.06-1.1-.09-1.67.33.64.63,1.21.89,1.72.4.78.78,1.47,1.12,2.09s.72,1.24,1.11,1.87l6.22,9.88h4.05v-19.93h-3.62Z"/>
  </g>
</svg>